# xmcd CD database file
#
# Track frame offsets:
#	150
#	29345
#	64032
#	86875
#	116003
#	156217
#	169301
#	181928
#	195539
#	209362
#	231317
#	249871
#
# Disc length: 3553 seconds
#
# Revision: 0
# Processed by: cddbd v1.5.1PL0 Copyright (c) Steve Scherf et al.
# Submitted via: CDex 1.51
#
DISCID=a20ddf0c
DTITLE=Charlie Parker - The Best of The Bird
DYEAR=2001
DGENRE=Jazz
TTITLE0=Move
TTITLE1=Ornithology
TTITLE2=Round Midnight
TTITLE3=Wahoo
TTITLE4=Cool Blue - 52nd Street Theme
TTITLE5=Crazeology
TTITLE6=Drifting on a Reed - Take E
TTITLE7=Relaxin' at Camarillo
TTITLE8=Chers
TTITLE9=Moose the Moochie
TTITLE10=My Little Suede Shoes
TTITLE11=Lester Leaps In
EXTD=YEAR: 2001
EXTT0=
EXTT1=
EXTT2=
EXTT3=
EXTT4=
EXTT5=
EXTT6=
EXTT7=
EXTT8=
EXTT9=
EXTT10=
EXTT11=
PLAYORDER=
